<svg width="50" height="51" viewBox="0 0 50 51" fill="currentColor" xmlns="http://www.w3.org/2000/svg">
    <path d="M24.9986 42.5024C25.6617 42.5024 26.2976 42.7658 26.7665 43.2346C27.2353 43.7035 27.4988 44.3394 27.4988 45.0025V47.5026C27.4988 48.1657 27.2353 48.8016 26.7665 49.2705C26.2976 49.7394 25.6617 50.0028 24.9986 50.0028C24.3355 50.0028 23.6996 49.7394 23.2308 49.2705C22.7619 48.8016 22.4985 48.1657 22.4985 47.5026V45.0025C22.4985 44.3394 22.7619 43.7035 23.2308 43.2346C23.6996 42.7658 24.3355 42.5024 24.9986 42.5024V42.5024ZM40.9095 37.3771L42.6771 39.1447C43.1325 39.6162 43.3845 40.2477 43.3788 40.9033C43.3731 41.5588 43.1102 42.1859 42.6466 42.6494C42.1831 43.113 41.556 43.3759 40.9005 43.3816C40.245 43.3873 39.6134 43.1353 39.1419 42.6799L37.3743 40.9123C36.9189 40.4407 36.6669 39.8092 36.6726 39.1537C36.6783 38.4981 36.9412 37.8711 37.4048 37.4075C37.8683 36.944 38.4954 36.681 39.1509 36.6753C39.8064 36.6697 40.438 36.9217 40.9095 37.3771ZM9.08773 37.3771C9.53765 36.9287 10.1414 36.6683 10.7763 36.649C11.4112 36.6296 12.0297 36.8526 12.5061 37.2727C12.9826 37.6928 13.2812 38.2785 13.3415 38.9108C13.4017 39.5432 13.219 40.1747 12.8304 40.6773L12.6229 40.9123L10.8553 42.6799C10.4054 43.1283 9.80169 43.3886 9.16678 43.408C8.53187 43.4274 7.91339 43.2044 7.43695 42.7842C6.96051 42.3641 6.66184 41.7784 6.6016 41.1461C6.54136 40.5138 6.72407 39.8822 7.11262 39.3797L7.32014 39.1447L9.08773 37.3771ZM24.9986 10.0006C28.9771 10.0006 32.7926 11.581 35.6058 14.3942C38.419 17.2074 39.9994 21.0229 39.9994 25.0014C39.9994 28.9799 38.419 32.7954 35.6058 35.6086C32.7926 38.4218 28.9771 40.0022 24.9986 40.0022C21.0201 40.0022 17.2046 38.4218 14.3914 35.6086C11.5782 32.7954 9.99778 28.9799 9.99778 25.0014C9.99778 21.0229 11.5782 17.2074 14.3914 14.3942C17.2046 11.581 21.0201 10.0006 24.9986 10.0006V10.0006ZM4.99751 22.5012C5.63474 22.502 6.24766 22.746 6.71102 23.1834C7.17439 23.6209 7.45323 24.2187 7.49057 24.8549C7.52792 25.491 7.32095 26.1174 6.91195 26.6061C6.50295 27.0947 5.9228 27.4088 5.29002 27.484L4.99751 27.5015H2.49737C1.86013 27.5008 1.24722 27.2568 0.783853 26.8194C0.320487 26.3819 0.0416452 25.784 0.00430033 25.1479C-0.0330445 24.5118 0.173926 23.8854 0.582925 23.3967C0.991923 22.9081 1.57208 22.594 2.20485 22.5187L2.49737 22.5012H4.99751ZM47.4999 22.5012C48.1629 22.5012 48.7989 22.7647 49.2677 23.2335C49.7366 23.7024 50 24.3383 50 25.0014C50 25.6645 49.7366 26.3004 49.2677 26.7692C48.7989 27.2381 48.1629 27.5015 47.4999 27.5015H44.9997C44.3366 27.5015 43.7007 27.2381 43.2319 26.7692C42.763 26.3004 42.4996 25.6645 42.4996 25.0014C42.4996 24.3383 42.763 23.7024 43.2319 23.2335C43.7007 22.7647 44.3366 22.5012 44.9997 22.5012H47.4999ZM7.32014 7.32291C7.75064 6.89244 8.32342 6.63385 8.93102 6.59564C9.53862 6.55744 10.1393 6.74225 10.6203 7.11539L10.8553 7.32291L12.6229 9.0905C13.0713 9.54042 13.3317 10.1441 13.351 10.7791C13.3704 11.414 13.1474 12.0324 12.7273 12.5089C12.3072 12.9853 11.7215 13.284 11.0892 13.3442C10.4568 13.4045 9.82525 13.2218 9.32275 12.8332L9.08773 12.6257L7.32014 10.8581C6.85143 10.3893 6.58813 9.75345 6.58813 9.0905C6.58813 8.42756 6.85143 7.79175 7.32014 7.32291V7.32291ZM42.6771 7.32291C43.1458 7.79175 43.4091 8.42756 43.4091 9.0905C43.4091 9.75345 43.1458 10.3893 42.6771 10.8581L40.9095 12.6257C40.6789 12.8645 40.403 13.055 40.098 13.186C39.7929 13.317 39.4649 13.386 39.1329 13.3889C38.8009 13.3918 38.4717 13.3285 38.1645 13.2028C37.8572 13.0771 37.5781 12.8914 37.3433 12.6567C37.1086 12.4219 36.9229 12.1428 36.7972 11.8355C36.6715 11.5283 36.6082 11.1991 36.6111 10.8671C36.614 10.5351 36.683 10.2071 36.814 9.90204C36.945 9.59701 37.1355 9.32113 37.3743 9.0905L39.1419 7.32291C39.6107 6.8542 40.2465 6.5909 40.9095 6.5909C41.5724 6.5909 42.2082 6.8542 42.6771 7.32291V7.32291ZM24.9986 0C25.6617 0 26.2976 0.263407 26.7665 0.732273C27.2353 1.20114 27.4988 1.83706 27.4988 2.50014V5.00028C27.4988 5.66335 27.2353 6.29927 26.7665 6.76814C26.2976 7.23701 25.6617 7.50042 24.9986 7.50042C24.3355 7.50042 23.6996 7.23701 23.2308 6.76814C22.7619 6.29927 22.4985 5.66335 22.4985 5.00028V2.50014C22.4985 1.83706 22.7619 1.20114 23.2308 0.732273C23.6996 0.263407 24.3355 0 24.9986 0V0Z" fill="currentColor" />
</svg>