<svg width="45" height="45" viewBox="0 0 45 45" fill="currentColor" xmlns="http://www.w3.org/2000/svg">
    <path d="M15.9995 4.50507C14.4249 7.86889 13.9357 11.6268 14.5978 15.2727C15.2599 18.9185 17.0415 22.277 19.7026 24.8959C22.3637 27.5147 25.7764 29.268 29.481 29.9196C33.1856 30.5712 37.0042 30.0897 40.4223 28.5401C38.3891 37.5503 30.2216 44.2857 20.4545 44.2857C9.1575 44.2857 0 35.2736 0 24.1558C0 14.5438 6.84409 6.50597 15.9995 4.50507V4.50507ZM33.0627 4.61175L34.7727 5.03247V7.04545L33.0627 7.46617C32.3435 7.64318 31.6868 8.00918 31.1626 8.52506C30.6384 9.04094 30.2665 9.6873 30.0866 10.3951L29.6591 12.0779H27.6136L27.1861 10.3951C27.0063 9.6873 26.6344 9.04094 26.1102 8.52506C25.586 8.00918 24.9292 7.64318 24.21 7.46617L22.5 7.04545V5.03247L24.21 4.61175C24.9288 4.43443 25.5852 4.06828 26.109 3.55242C26.6328 3.03657 27.0044 2.39037 27.1841 1.68286L27.6136 0H29.6591L30.0866 1.68286C30.2665 2.39062 30.6384 3.03699 31.1626 3.55286C31.6868 4.06874 32.3435 4.43475 33.0627 4.61175V4.61175ZM43.29 14.6767L45 15.0974V17.1104L43.29 17.5311C42.5708 17.7081 41.914 18.0741 41.3898 18.59C40.8656 19.1059 40.4937 19.7522 40.3139 20.46L39.8864 22.1429H37.8409L37.4134 20.46C37.2335 19.7522 36.8616 19.1059 36.3374 18.59C35.8132 18.0741 35.1565 17.7081 34.4373 17.5311L32.7273 17.1104V15.0974L34.4373 14.6767C35.1565 14.4997 35.8132 14.1337 36.3374 13.6178C36.8616 13.1019 37.2335 12.4556 37.4134 11.7478L37.8409 10.0649H39.8864L40.3139 11.7478C40.4937 12.4556 40.8656 13.1019 41.3898 13.6178C41.914 14.1337 42.5708 14.4997 43.29 14.6767Z" fill="currentColor" />
</svg>